<?xml version="1.0" encoding="UTF-8" standalone="no"?>
<!-- Created with Inkscape (http://www.inkscape.org/) -->

<svg
   xmlns:dc="http://purl.org/dc/elements/1.1/"
   xmlns:cc="http://creativecommons.org/ns#"
   xmlns:rdf="http://www.w3.org/1999/02/22-rdf-syntax-ns#"
   xmlns:svg="http://www.w3.org/2000/svg"
   xmlns="http://www.w3.org/2000/svg"
   xmlns:sodipodi="http://sodipodi.sourceforge.net/DTD/sodipodi-0.dtd"
   xmlns:inkscape="http://www.inkscape.org/namespaces/inkscape"
   width="194.50101mm"
   height="194.50101mm"
   viewBox="0 0 194.50101 194.50101"
   version="1.1"
   id="svg104"
   inkscape:version="0.92.2 (5c3e80d, 2017-08-06)"
   sodipodi:docname="logo.svg">
  <defs
     id="defs98" />
  <sodipodi:namedview
     id="base"
     pagecolor="#ffffff"
     bordercolor="#666666"
     borderopacity="1.0"
     inkscape:pageopacity="0.0"
     inkscape:pageshadow="2"
     inkscape:zoom="0.35"
     inkscape:cx="-915.29618"
     inkscape:cy="333.27525"
     inkscape:document-units="mm"
     inkscape:current-layer="layer1"
     showgrid="false"
     fit-margin-top="0"
     fit-margin-left="0"
     fit-margin-right="0"
     fit-margin-bottom="0"
     inkscape:window-width="2560"
     inkscape:window-height="1376"
     inkscape:window-x="0"
     inkscape:window-y="27"
     inkscape:window-maximized="1" />
  <metadata
     id="metadata101">
    <rdf:RDF>
      <cc:Work
         rdf:about="">
        <dc:format>image/svg+xml</dc:format>
        <dc:type
           rdf:resource="http://purl.org/dc/dcmitype/StillImage" />
        <dc:title />
      </cc:Work>
    </rdf:RDF>
  </metadata>
  <g
     inkscape:label="Layer 1"
     inkscape:groupmode="layer"
     id="layer1"
     transform="translate(-42.600686,-45.535211)">
    <g
       transform="translate(119.6633,62.024614)"
       id="g81">
      <rect
         inkscape:export-ydpi="261.17999"
         inkscape:export-xdpi="261.17999"
         inkscape:export-filename="/home/ash/eventsbne-blue.png"
         rx="0"
         ry="0"
         y="-16.489403"
         x="-77.062614"
         height="194.50101"
         width="194.50101"
         id="rect1082"
         style="opacity:1;vector-effect:none;fill:#ffffff;fill-opacity:0;stroke:none;stroke-width:4.69633865;stroke-linecap:round;stroke-linejoin:round;stroke-miterlimit:4;stroke-dasharray:none;stroke-dashoffset:144.49133301;stroke-opacity:1" />
      <g
         inkscape:export-ydpi="261.17999"
         inkscape:export-xdpi="261.17999"
         inkscape:export-filename="/home/ash/eventsbne-blue.png"
         transform="matrix(0.97360387,0,0,0.97360387,-15.717757,14.16503)"
         id="g1071">
        <path
           inkscape:connector-curvature="0"
           style="opacity:1;vector-effect:none;fill:#ff0085;fill-opacity:1;stroke:none;stroke-width:20.12063217;stroke-linecap:round;stroke-linejoin:round;stroke-miterlimit:4;stroke-dasharray:none;stroke-dashoffset:144.49133301;stroke-opacity:1"
           d="m -31.314453,-62.933594 c -8.685273,1.452975 -16.685384,1.454135 -22.146485,11.701172 L -223.17188,241.70898 c -7.85112,13.08886 -5.21195,24.81048 -0.5996,32.58594 l 167.570308,289.2461 c 8.201737,14.97769 16.201446,16.61346 24.886719,16.43164 H 309.10742 c 21.63031,0 22.15591,-9.4521 26.48438,-16.94922 L 503.48047,273.22656 c 5.37686,-9.31303 3.91724,-22.70686 -0.41406,-30.12695 L 332.66602,-51.035156 c -4.66509,-8.08016 -12.66607,-11.682 -26.58985,-11.898438 z M 139.38672,-31.478516 A 41.01219,41.01219 0 0 1 180.39844,9.5332031 41.01219,41.01219 0 0 1 139.38672,50.544922 41.01219,41.01219 0 0 1 98.373047,9.5332031 41.01219,41.01219 0 0 1 139.38672,-31.478516 Z"
           transform="scale(0.26458333)"
           id="path820"
           inkscape:export-filename="/home/ash/text828.png"
           inkscape:export-xdpi="261.17999"
           inkscape:export-ydpi="261.17999" />
        <path
           style="opacity:1;vector-effect:none;fill:#ffffff;fill-opacity:1;stroke:none;stroke-width:4.67032909;stroke-linecap:round;stroke-linejoin:round;stroke-miterlimit:4;stroke-dasharray:none;stroke-dashoffset:144.49133301;stroke-opacity:1"
           d="m 96.117915,105.58822 -120.027816,-1e-5 c -2.015994,0.0422 -3.872925,-0.33726 -5.776683,-3.81383 L -47.41558,73.000023 c -1.070602,-1.804812 -1.683083,-4.525792 0.139293,-7.56393 l 16.705709,-30.185217 c 1.267611,-2.378505 3.124543,-2.378505 5.140536,-2.715765 l 122.427217,5e-6 c 3.231935,0.05024 5.088865,0.886112 6.171705,2.76165 l 18.12658,30.462258 c 1.00537,1.722323 1.3441,4.831035 0.096,6.992743 l -19.12585,28.902053 c -1.00471,1.74021 -1.12695,3.9344 -6.147695,3.9344 z"
           id="path824"
           inkscape:connector-curvature="0"
           sodipodi:nodetypes="ccccccccccccc"
           inkscape:export-filename="/home/ash/text828.png"
           inkscape:export-xdpi="261.17999"
           inkscape:export-ydpi="261.17999" />
        <g
           aria-label="BNE"
           style="font-style:normal;font-variant:normal;font-weight:normal;font-stretch:normal;font-size:58.44766617px;line-height:125%;font-family:'Helvetica LT Std';-inkscape-font-specification:'Helvetica LT Std';letter-spacing:0px;word-spacing:0px;fill:#000000;fill-opacity:1;stroke:#000000;stroke-width:1.46119153px;stroke-linecap:butt;stroke-linejoin:miter;stroke-opacity:1"
           id="text828">
          <path
             d="m -23.789501,85.154748 c 0,4.26668 2.221011,5.610976 5.610976,5.610976 h 14.0858876 c 8.2995686,0 15.4886314,-3.623755 15.4886314,-12.449353 0,-5.786319 -2.9223832,-8.942493 -7.3644058,-10.111446 V 68.08803 c 3.9744413,-1.578087 5.9032143,-4.968052 5.9032143,-8.53336 0,-9.293178 -8.3580163,-10.871265 -15.3717362,-10.871265 H -18.178525 c -3.389965,0 -5.610976,1.344296 -5.610976,5.610975 z m 9.585417,-13.092277 h 6.896825 c 4.6758133,0 9.1178359,0.642924 9.1178359,5.727871 0,4.851157 -4.208232,5.610976 -7.9488826,5.610976 h -8.0657783 z m 0,-16.365347 h 7.598197 c 3.5653076,0 6.95527224,1.110506 6.95527224,5.143395 0,3.331517 -2.16256364,5.143395 -6.66303394,5.143395 h -7.8904353 z"
             style="font-style:normal;font-variant:normal;font-weight:normal;font-stretch:normal;font-family:'Helvetica Rounded LT Std';-inkscape-font-specification:'Helvetica Rounded LT Std';fill:#000000;fill-opacity:1;stroke:none;stroke-width:1.46119153px"
             id="path822" />
          <path
             d="m 18.272728,86.908178 c 0,3.097727 1.75343,4.617366 4.617365,4.617366 2.863936,0 4.617366,-1.519639 4.617366,-4.617366 V 62.652397 h 0.116895 l 16.657585,26.30145 c 1.227401,1.928773 2.221012,2.571697 5.26029,2.571697 4.032889,0 5.669424,-2.162564 5.669424,-5.961662 V 52.540951 c 0,-3.097727 -1.75343,-4.617366 -4.617366,-4.617366 -2.863935,0 -4.617365,1.519639 -4.617365,4.617366 V 77.498104 H 45.860026 L 29.085546,50.436835 c -1.052058,-1.75343 -2.805488,-2.51325 -4.792709,-2.51325 -4.091336,0 -6.020109,1.636535 -6.020109,5.610976 z"
             style="font-style:normal;font-variant:normal;font-weight:normal;font-stretch:normal;font-family:'Helvetica Rounded LT Std';-inkscape-font-specification:'Helvetica Rounded LT Std';fill:#000000;fill-opacity:1;stroke:none;stroke-width:1.46119153px"
             id="path825" />
          <path
             d="m 64.115791,85.154748 c 0,4.26668 2.221011,5.610976 5.610976,5.610976 H 92.6967 c 2.805488,0 4.851156,-0.818267 4.851156,-3.857546 0,-3.039278 -2.045668,-3.857546 -4.851156,-3.857546 H 73.701208 V 72.880738 h 16.248451 c 2.51325,0 4.500471,-0.701372 4.500471,-3.682203 0,-2.980831 -1.987221,-3.682203 -4.500471,-3.682203 H 73.701208 v -9.117836 h 18.52791 c 2.805488,0 4.851157,-0.818267 4.851157,-3.857545 0,-3.039279 -2.045669,-3.857546 -4.851157,-3.857546 H 69.726767 c -3.389965,0 -5.610976,1.344296 -5.610976,5.610975 z"
             style="font-style:normal;font-variant:normal;font-weight:normal;font-stretch:normal;font-family:'Helvetica Rounded LT Std';-inkscape-font-specification:'Helvetica Rounded LT Std';fill:#000000;fill-opacity:1;stroke:none;stroke-width:1.46119153px"
             id="path827" />
        </g>
      </g>
    </g>
  </g>
</svg>
