<?xml version="1.0" encoding="UTF-8" standalone="no"?>
<!-- Created with Inkscape (http://www.inkscape.org/) -->

<svg
   xmlns:dc="http://purl.org/dc/elements/1.1/"
   xmlns:cc="http://creativecommons.org/ns#"
   xmlns:rdf="http://www.w3.org/1999/02/22-rdf-syntax-ns#"
   xmlns:svg="http://www.w3.org/2000/svg"
   xmlns="http://www.w3.org/2000/svg"
   xmlns:sodipodi="http://sodipodi.sourceforge.net/DTD/sodipodi-0.dtd"
   xmlns:inkscape="http://www.inkscape.org/namespaces/inkscape"
   width="133.77985mm"
   height="99.666595mm"
   viewBox="0 0 133.77985 99.666596"
   version="1.1"
   id="svg8"
   inkscape:version="0.92.2 (5c3e80d, 2017-08-06)"
   sodipodi:docname="inspired-involved.svg">
  <defs
     id="defs2">
    <clipPath
       clipPathUnits="userSpaceOnUse"
       id="clipPath850">
      <rect
         y="-203.72395"
         x="-518.63062"
         height="9.4494047"
         width="13.98512"
         id="rect852"
         style="opacity:1;vector-effect:none;fill:#ffc107;fill-opacity:1;stroke:none;stroke-width:3.42038107;stroke-linecap:round;stroke-linejoin:round;stroke-miterlimit:4;stroke-dasharray:none;stroke-dashoffset:144.49133301;stroke-opacity:1" />
    </clipPath>
    <filter
       inkscape:collect="always"
       style="color-interpolation-filters:sRGB"
       id="filter1084"
       x="-0.10987738"
       width="1.2197548"
       y="-0.19440276"
       height="1.3888055">
      <feGaussianBlur
         inkscape:collect="always"
         stdDeviation="3.9772759"
         id="feGaussianBlur1086" />
    </filter>
  </defs>
  <sodipodi:namedview
     id="base"
     pagecolor="#ffffff"
     bordercolor="#666666"
     borderopacity="1.0"
     inkscape:pageopacity="0.0"
     inkscape:pageshadow="2"
     inkscape:zoom="2.8284271"
     inkscape:cx="58.197041"
     inkscape:cy="99.891554"
     inkscape:document-units="mm"
     inkscape:current-layer="layer1"
     showgrid="false"
     showguides="true"
     inkscape:guide-bbox="true"
     fit-margin-top="0"
     fit-margin-left="0"
     fit-margin-right="0"
     fit-margin-bottom="0"
     inkscape:window-width="2560"
     inkscape:window-height="1376"
     inkscape:window-x="0"
     inkscape:window-y="27"
     inkscape:window-maximized="1" />
  <metadata
     id="metadata5">
    <rdf:RDF>
      <cc:Work
         rdf:about="">
        <dc:format>image/svg+xml</dc:format>
        <dc:type
           rdf:resource="http://purl.org/dc/dcmitype/StillImage" />
        <dc:title></dc:title>
      </cc:Work>
    </rdf:RDF>
  </metadata>
  <g
     inkscape:label="Layer 1"
     inkscape:groupmode="layer"
     id="layer1"
     transform="translate(541.63989,242.67413)">
    <g
       id="g1037"
       style="opacity:0.51499999;fill:#1a1a1a;fill-opacity:1;filter:url(#filter1084)"
       transform="translate(1.3229167)">
      <path
         style="opacity:1;vector-effect:none;fill:#1a1a1a;fill-opacity:1;stroke:none;stroke-width:20;stroke-linecap:round;stroke-linejoin:round;stroke-miterlimit:4;stroke-dasharray:none;stroke-dashoffset:144.49133301;stroke-opacity:1"
         d="m 2.7070312,155.36914 c -1.1079999,0 -1.99999995,0.892 -1.99999995,2 v 27.81836 c 0,1.108 0.89200005,2 1.99999995,2 H 49.265625 c 1.108,0 2,-0.892 2,-2 v -27.81836 c 0,-1.108 -0.892,-2 -2,-2 z m -1.234375,34.49024 v 55.58007 H 123.05469 v 12.05469 h 17.21484 V 245.43945 H 329.81445 V 189.85938 H 311.75 v 15.83007 H 194.06836 v -15.83007 h -17.67774 v 15.83007 H 16.785156 v -15.83007 z m 2.6484376,97.73828 c -1.108,0 -2.0000001,0.892 -2,2 v 22.86914 c 0,1.108 0.892,2 2,2 H 45.730469 c 1.108,0 2,-0.892 2,-2 v -22.86914 c 0,-1.108 -0.892,-2 -2,-2 z"
         transform="matrix(0.26458333,0,0,0.26458333,-541.63989,-242.67413)"
         id="rect1021"
         inkscape:connector-curvature="0" />
      <path
         sodipodi:nodetypes="ccccccccccccc"
         inkscape:connector-curvature="0"
         style="opacity:1;vector-effect:none;fill:#1a1a1a;fill-opacity:1;stroke:none;stroke-width:5.29166651;stroke-linecap:round;stroke-linejoin:round;stroke-miterlimit:4;stroke-dasharray:none;stroke-dashoffset:144.49133301;stroke-opacity:1"
         d="m -541.25025,-158.04459 v 14.70556 h 86.87377 v -14.70556 h -4.77956 v 4.18838 h -33.12097 v -4.18838 h -4.67724 v 4.18838 h -40.24457 v -4.18838 z"
         id="path1033" />
    </g>
    <g
       aria-label="inspired"
       style="font-style:normal;font-variant:normal;font-weight:normal;font-stretch:normal;font-size:19.48003197px;line-height:125%;font-family:'Helvetica LT Std';-inkscape-font-specification:'Helvetica LT Std';letter-spacing:0.53181249px;word-spacing:0px;fill:#ffc107;fill-opacity:1;stroke:none;stroke-width:0.48700076px;stroke-linecap:butt;stroke-linejoin:miter;stroke-opacity:1"
       id="text832">
      <path
         d="m -537.19858,-178.04478 v -10.20754 h -4.05185 v 10.20754 z m -4.05185,-11.5127 h 4.05185 v -2.88305 h -4.05185 z"
         style="font-style:normal;font-variant:normal;font-weight:900;font-stretch:normal;font-family:'Helvetica LT Std';-inkscape-font-specification:'Helvetica LT Std Heavy';letter-spacing:0.53181249px;fill:#ffc107;fill-opacity:1;stroke:none;stroke-width:0.48700076px;stroke-opacity:1"
         id="path928"
         inkscape:connector-curvature="0" />
      <path
         d="m -534.48531,-178.04478 h 4.05185 v -5.20117 c 0,-1.30517 0.33116,-2.10385 1.57788,-2.10385 1.14932,0 1.42204,0.89608 1.42204,1.90905 v 5.39597 h 4.05185 v -6.11673 c 0,-2.80513 -1.2662,-4.38301 -3.95445,-4.38301 -1.53892,0 -2.5324,0.66232 -3.44796,1.88956 v -1.59736 h -3.70121 z"
         style="font-style:normal;font-variant:normal;font-weight:900;font-stretch:normal;font-family:'Helvetica LT Std';-inkscape-font-specification:'Helvetica LT Std Heavy';letter-spacing:0.53181249px;fill:#ffc107;fill-opacity:1;stroke:none;stroke-width:0.48700076px;stroke-opacity:1"
         id="path930"
         inkscape:connector-curvature="0" />
      <path
         d="m -521.23365,-181.22003 c 0.21428,2.74668 2.78565,3.46745 5.12325,3.46745 3.74017,0 5.49337,-1.44153 5.49337,-3.56485 0,-3.81809 -6.44789,-2.86356 -6.44789,-4.28561 0,-0.50648 0.44804,-0.72076 1.14932,-0.72076 0.31168,0 0.60388,0.0779 0.81816,0.25324 0.21428,0.17532 0.35064,0.40908 0.3896,0.74024 h 3.68173 c -0.23376,-2.70772 -2.84408,-3.2142 -5.06481,-3.2142 -2.12332,0 -4.83105,0.75972 -4.83105,3.37004 0,3.95445 6.25309,2.64929 6.25309,4.28561 0,0.72076 -0.66232,0.91556 -1.28568,0.91556 -0.3896,0 -0.74024,-0.11688 -0.99348,-0.31168 -0.27272,-0.21428 -0.42856,-0.52596 -0.42856,-0.93504 z"
         style="font-style:normal;font-variant:normal;font-weight:900;font-stretch:normal;font-family:'Helvetica LT Std';-inkscape-font-specification:'Helvetica LT Std Heavy';letter-spacing:0.53181249px;fill:#ffc107;fill-opacity:1;stroke:none;stroke-width:0.48700076px;stroke-opacity:1"
         id="path932"
         inkscape:connector-curvature="0" />
      <path
         d="m -508.57886,-188.25232 v 13.67498 h 4.05185 v -4.48041 c 0.6818,0.85713 1.49996,1.30517 2.61032,1.30517 2.27916,0 4.77261,-1.46101 4.77261,-5.47389 0,-2.80513 -1.48048,-5.31805 -4.55833,-5.31805 -1.1688,0 -2.6298,0.56492 -3.19472,1.81164 h -0.039 v -1.51944 z m 5.62973,7.40241 c -1.05192,0 -1.6558,-0.974 -1.6558,-2.39604 0,-1.36361 0.66232,-2.29865 1.63632,-2.29865 1.0714,0 1.77268,0.75972 1.77268,2.37657 0,1.40256 -0.6818,2.31812 -1.7532,2.31812 z"
         style="font-style:normal;font-variant:normal;font-weight:900;font-stretch:normal;font-family:'Helvetica LT Std';-inkscape-font-specification:'Helvetica LT Std Heavy';letter-spacing:0.53181249px;fill:#ffc107;fill-opacity:1;stroke:none;stroke-width:0.48700076px;stroke-opacity:1"
         id="path934"
         inkscape:connector-curvature="0" />
      <path
         d="m -490.63251,-178.04478 v -10.20754 h -4.05184 v 10.20754 z m -4.05184,-11.5127 h 4.05184 v -2.88305 h -4.05184 z"
         style="font-style:normal;font-variant:normal;font-weight:900;font-stretch:normal;font-family:'Helvetica LT Std';-inkscape-font-specification:'Helvetica LT Std Heavy';letter-spacing:0.53181249px;fill:#ffc107;fill-opacity:1;stroke:none;stroke-width:0.48700076px;stroke-opacity:1"
         id="path936"
         inkscape:connector-curvature="0" />
      <path
         d="m -487.84132,-178.04478 h 4.05185 v -3.52589 c 0,-2.20124 0.83764,-2.98045 2.49344,-2.98045 0.27272,0 0.56492,0.0779 0.83765,0.11688 v -4.05184 c -0.17533,-0.0195 -0.35065,-0.0584 -0.52597,-0.0584 -1.57788,0 -2.57136,0.75972 -3.13628,2.35708 h -0.039 v -2.06488 h -3.68173 z"
         style="font-style:normal;font-variant:normal;font-weight:900;font-stretch:normal;font-family:'Helvetica LT Std';-inkscape-font-specification:'Helvetica LT Std Heavy';letter-spacing:0.53181249px;fill:#ffc107;fill-opacity:1;stroke:none;stroke-width:0.48700076px;stroke-opacity:1"
         id="path938"
         inkscape:connector-curvature="0" />
      <path
         d="m -475.37251,-184.29787 c 0,-1.09089 0.6818,-1.77269 1.88956,-1.77269 0.95453,0 1.79217,0.83764 1.79217,1.77269 z m 7.73357,2.06488 c 0.0584,-3.70121 -2.22072,-6.31153 -5.99985,-6.31153 -3.27264,0 -5.78557,2.1428 -5.78557,5.49337 0,3.42848 2.53241,5.29857 5.80505,5.29857 2.37657,0 4.94793,-0.83765 5.64921,-3.37005 h -3.87652 c -0.2922,0.60388 -0.8766,0.89608 -1.51945,0.89608 -1.0714,0 -2.00644,-0.79868 -2.00644,-2.00644 z"
         style="font-style:normal;font-variant:normal;font-weight:900;font-stretch:normal;font-family:'Helvetica LT Std';-inkscape-font-specification:'Helvetica LT Std Heavy';letter-spacing:0.53181249px;fill:#ffc107;fill-opacity:1;stroke:none;stroke-width:0.48700076px;stroke-opacity:1"
         id="path940"
         inkscape:connector-curvature="0" />
      <path
         d="m -454.42623,-178.04478 v -14.02563 h -4.05184 v 4.85053 c -0.85713,-1.01296 -1.75321,-1.32464 -3.03889,-1.32464 -2.435,0 -4.32457,2.20124 -4.32457,5.59077 0,2.88304 1.55841,5.20117 4.63625,5.20117 1.30516,0 2.18176,-0.40908 3.13629,-1.65581 v 1.36361 z m -5.76609,-2.62981 c -1.32464,0 -1.59736,-1.24672 -1.59736,-2.31812 0,-1.12984 0.37012,-2.41553 1.71424,-2.41553 1.34413,0 1.73373,1.22725 1.73373,2.35709 0,1.18828 -0.44804,2.37656 -1.85061,2.37656 z"
         style="font-style:normal;font-variant:normal;font-weight:900;font-stretch:normal;font-family:'Helvetica LT Std';-inkscape-font-specification:'Helvetica LT Std Heavy';letter-spacing:0.53181249px;fill:#ffc107;fill-opacity:1;stroke:none;stroke-width:0.48700076px;stroke-opacity:1"
         id="path942"
         inkscape:connector-curvature="0" />
    </g>
    <g
       aria-label="involved"
       style="font-style:normal;font-variant:normal;font-weight:normal;font-stretch:normal;font-size:19.48003197px;line-height:125%;font-family:'Helvetica LT Std';-inkscape-font-specification:'Helvetica LT Std';letter-spacing:0.53181249px;word-spacing:0px;fill:#ff0084;fill-opacity:1;stroke:none;stroke-width:0.48700076px;stroke-linecap:butt;stroke-linejoin:miter;stroke-opacity:1"
       id="text901">
      <path
         d="m -537.19858,-143.29974 v -10.20754 h -4.05185 v 10.20754 z m -4.05185,-11.5127 h 4.05185 v -2.88305 h -4.05185 z"
         style="font-style:normal;font-variant:normal;font-weight:900;font-stretch:normal;font-family:'Helvetica LT Std';-inkscape-font-specification:'Helvetica LT Std Heavy';letter-spacing:0px;fill:#ff0084;fill-opacity:1;stroke:none;stroke-width:0.48700076px;stroke-opacity:1"
         id="path903"
         inkscape:connector-curvature="0" />
      <path
         d="m -535.01712,-143.29974 h 4.05184 v -5.20117 c 0,-1.30516 0.33116,-2.10385 1.57789,-2.10385 1.14932,0 1.42204,0.89609 1.42204,1.90905 v 5.39597 h 4.05185 v -6.11673 c 0,-2.80513 -1.26621,-4.38301 -3.95445,-4.38301 -1.53892,0 -2.53241,0.66232 -3.44797,1.88956 v -1.59736 h -3.7012 z"
         style="font-style:normal;font-variant:normal;font-weight:900;font-stretch:normal;font-family:'Helvetica LT Std';-inkscape-font-specification:'Helvetica LT Std Heavy';letter-spacing:0px;fill:#ff0084;fill-opacity:1;stroke:none;stroke-width:0.48700076px;stroke-opacity:1"
         id="path905"
         inkscape:connector-curvature="0" />
      <path
         d="m -519.19995,-143.29974 h 4.51937 l 3.44797,-10.20754 h -3.89601 l -1.77268,6.44789 -1.79217,-6.44789 h -4.05184 z"
         style="font-style:normal;font-variant:normal;font-weight:900;font-stretch:normal;font-family:'Helvetica LT Std';-inkscape-font-specification:'Helvetica LT Std Heavy';letter-spacing:0px;fill:#ff0084;fill-opacity:1;stroke:none;stroke-width:0.48700076px;stroke-opacity:1"
         id="path907"
         inkscape:connector-curvature="0" />
      <path
         d="m -504.50561,-151.07228 c 1.05192,-0.0584 1.71424,1.07141 1.71424,2.57137 0,1.92852 -0.66232,2.76616 -1.7532,2.76616 -1.03244,0 -1.7532,-0.83764 -1.7532,-2.76616 0,-1.14932 0.40908,-2.57137 1.79216,-2.57137 z m -5.84401,2.78565 c 0,3.48692 2.5324,5.27909 5.80505,5.27909 3.27264,0 5.80505,-1.75321 5.80505,-5.49337 0,-3.17525 -2.22073,-5.29857 -5.82453,-5.29857 -3.44797,0 -5.78557,1.96748 -5.78557,5.51285 z"
         style="font-style:normal;font-variant:normal;font-weight:900;font-stretch:normal;font-family:'Helvetica LT Std';-inkscape-font-specification:'Helvetica LT Std Heavy';letter-spacing:0px;fill:#ff0084;fill-opacity:1;stroke:none;stroke-width:0.48700076px;stroke-opacity:1"
         id="path909"
         inkscape:connector-curvature="0" />
      <path
         d="m -492.75976,-143.29974 v -14.02563 h -4.05185 v 14.02563 z"
         style="font-style:normal;font-variant:normal;font-weight:900;font-stretch:normal;font-family:'Helvetica LT Std';-inkscape-font-specification:'Helvetica LT Std Heavy';letter-spacing:0px;fill:#ff0084;fill-opacity:1;stroke:none;stroke-width:0.48700076px;stroke-opacity:1"
         id="path911"
         inkscape:connector-curvature="0" />
      <path
         d="m -487.77318,-143.29974 h 4.51937 l 3.44797,-10.20754 h -3.89601 l -1.77268,6.44789 -1.79217,-6.44789 h -4.05184 z"
         style="font-style:normal;font-variant:normal;font-weight:900;font-stretch:normal;font-family:'Helvetica LT Std';-inkscape-font-specification:'Helvetica LT Std Heavy';letter-spacing:0px;fill:#ff0084;fill-opacity:1;stroke:none;stroke-width:0.48700076px;stroke-opacity:1"
         id="path913"
         inkscape:connector-curvature="0" />
      <path
         d="m -474.94892,-149.55283 c 0,-1.09089 0.6818,-1.77269 1.88956,-1.77269 0.95452,0 1.79216,0.83764 1.79216,1.77269 z m 7.73357,2.06488 c 0.0584,-3.70121 -2.22073,-6.31153 -5.99985,-6.31153 -3.27265,0 -5.78557,2.1428 -5.78557,5.49337 0,3.42848 2.5324,5.29857 5.80505,5.29857 2.37656,0 4.94793,-0.83764 5.64921,-3.37005 h -3.87653 c -0.2922,0.60388 -0.8766,0.89608 -1.51944,0.89608 -1.0714,0 -2.00644,-0.79868 -2.00644,-2.00644 z"
         style="font-style:normal;font-variant:normal;font-weight:900;font-stretch:normal;font-family:'Helvetica LT Std';-inkscape-font-specification:'Helvetica LT Std Heavy';letter-spacing:0px;fill:#ff0084;fill-opacity:1;stroke:none;stroke-width:0.48700076px;stroke-opacity:1"
         id="path915"
         inkscape:connector-curvature="0" />
      <path
         d="m -454.53446,-143.29974 v -14.02563 h -4.05184 v 4.85053 c -0.85713,-1.01296 -1.75321,-1.32464 -3.03889,-1.32464 -2.435,0 -4.32457,2.20124 -4.32457,5.59077 0,2.88304 1.55841,5.20117 4.63625,5.20117 1.30516,0 2.18176,-0.40908 3.13629,-1.65581 v 1.36361 z m -5.76609,-2.62981 c -1.32464,0 -1.59736,-1.24672 -1.59736,-2.31812 0,-1.12984 0.37012,-2.41553 1.71424,-2.41553 1.34412,0 1.73373,1.22725 1.73373,2.35709 0,1.18828 -0.44805,2.37656 -1.85061,2.37656 z"
         style="font-style:normal;font-variant:normal;font-weight:900;font-stretch:normal;font-family:'Helvetica LT Std';-inkscape-font-specification:'Helvetica LT Std Heavy';letter-spacing:0px;fill:#ff0084;fill-opacity:1;stroke:none;stroke-width:0.48700076px;stroke-opacity:1"
         id="path917"
         inkscape:connector-curvature="0" />
    </g>
    <text
       xml:space="preserve"
       style="font-style:normal;font-variant:normal;font-weight:normal;font-stretch:normal;font-size:12.22643185px;line-height:125%;font-family:'Helvetica LT Std';-inkscape-font-specification:'Helvetica LT Std';letter-spacing:0px;word-spacing:0px;fill:none;stroke:#ffc107;stroke-width:0.30566078px;stroke-linecap:butt;stroke-linejoin:miter;stroke-opacity:1"
       x="-541.82037"
       y="-194.56627"
       id="text1151"><tspan
         sodipodi:role="line"
         id="tspan1149"
         x="-541.82037"
         y="-194.56627"
         style="stroke:#ffc107;stroke-width:0.30566078px;stroke-opacity:1">be</tspan></text>
    <text
       id="text1201"
       y="-159.61009"
       x="-541.6333"
       style="font-style:normal;font-variant:normal;font-weight:normal;font-stretch:normal;font-size:12.22643185px;line-height:125%;font-family:'Helvetica LT Std';-inkscape-font-specification:'Helvetica LT Std';letter-spacing:0px;word-spacing:0px;fill:none;stroke:#ff0084;stroke-width:0.30566078px;stroke-linecap:butt;stroke-linejoin:miter;stroke-opacity:1"
       xml:space="preserve"><tspan
         style="stroke:#ff0084;stroke-width:0.30566078px;stroke-opacity:1"
         y="-159.61009"
         x="-541.6333"
         id="tspan1199"
         sodipodi:role="line">be</tspan></text>
  </g>
</svg>
